<?xml version="1.0" standalone="no"?><!DOCTYPE svg PUBLIC "-//W3C//DTD SVG 1.1//EN" "http://www.w3.org/Graphics/SVG/1.1/DTD/svg11.dtd"><svg t="1590748058405" class="icon" viewBox="0 0 1024 1024" version="1.1" xmlns="http://www.w3.org/2000/svg" p-id="19566" xmlns:xlink="http://www.w3.org/1999/xlink" width="200" height="200"><defs><style type="text/css"></style></defs><path d="M650.666667 256h-362.666667a32 32 0 0 0 0 64h362.666667a32 32 0 0 0 0-64zM554.666667 480a32 32 0 0 0-32-32h-234.666667a32 32 0 0 0 0 64h234.666667a32 32 0 0 0 32-32zM288 640a32 32 0 0 0 0 64h106.666667a32 32 0 0 0 0-64z" fill="#333333" p-id="19567"></path><path d="M149.333333 906.666667v-789.333334a10.666667 10.666667 0 0 1 10.666667-10.666666h661.333333a10.666667 10.666667 0 0 1 10.666667 10.666666v113.706667a32 32 0 0 0 32 32 32 32 0 0 0 32-32V117.333333A74.666667 74.666667 0 0 0 821.333333 42.666667h-661.333333A74.666667 74.666667 0 0 0 85.333333 117.333333v789.333334A74.666667 74.666667 0 0 0 160 981.333333h478.293333a32 32 0 0 0 32-32 32 32 0 0 0-32-32H160a10.666667 10.666667 0 0 1-10.666667-10.666666z" fill="#333333" p-id="19568"></path><path d="M864 352h-85.333333A74.666667 74.666667 0 0 0 704 426.666667v397.866666a53.333333 53.333333 0 0 0 11.733333 33.28l64 80a53.333333 53.333333 0 0 0 83.2 0l64-80a53.333333 53.333333 0 0 0 11.733334-33.28V426.666667a74.666667 74.666667 0 0 0-74.666667-74.666667z m10.666667 469.333333l-53.333334 66.133334-53.333333-66.773334V576h106.666667zM874.666667 512h-106.666667v-85.333333a10.666667 10.666667 0 0 1 10.666667-10.666667h85.333333a10.666667 10.666667 0 0 1 10.666667 10.666667z" fill="#333333" p-id="19569"></path></svg>