<?xml version="1.0" standalone="no"?><!DOCTYPE svg PUBLIC "-//W3C//DTD SVG 1.1//EN" "http://www.w3.org/Graphics/SVG/1.1/DTD/svg11.dtd"><svg t="1590747902683" class="icon" viewBox="0 0 1024 1024" version="1.1" xmlns="http://www.w3.org/2000/svg" p-id="10202" xmlns:xlink="http://www.w3.org/1999/xlink" width="200" height="200"><defs><style type="text/css"></style></defs><path d="M689.406636 932.862481c8.789995 8.106995 13.311993 20.138989 13.567993 35.92598a37.204979 37.204979 0 0 1-10.495994 27.817984c-12.116993 12.202993-30.633983 13.311993-42.665977 13.311993H173.738923A174.249903 174.249903 0 0 1 0.00002 835.582535V174.250903C0.00002 78.335956 77.994977 0 173.823923 0H833.449556c95.743947 0 173.737903 78.249956 173.737903 174.335903v470.526738c0 40.106978-22.014988 54.35797-42.665976 54.35797-19.369989 0-46.506974-16.809991-46.506974-54.35797V175.700902c0-52.905971-37.375979-92.927948-86.953952-92.927948H175.956922c-51.029972 0-92.585948 41.813977-92.585948 93.013948v660.478633c0 49.749972 39.849978 87.124952 92.585948 87.124951h467.02974l4.862997-0.341c10.580994-0.768 28.329984-2.218999 41.556977 9.898995z m334.506814 50.261972a37.802979 37.802979 0 0 1-11.263994 27.902984A40.959977 40.959977 0 0 1 982.526473 1023.99943c-17.23699 0-33.705981-9.983994-42.495976-17.91999l-0.597-0.512-261.802854-262.569854a294.399836 294.399836 0 0 1-174.079903 57.172969 294.996836 294.996836 0 0 1-294.228837-295.167836c0-78.761956 30.463983-152.831915 86.101953-208.639884a291.753838 291.753838 0 0 1 208.041884-86.441952c78.506956 0 152.489915 30.719983 208.042884 86.356952a293.375837 293.375837 0 0 1 86.185952 208.639884 296.105835 296.105835 0 0 1-56.916968 174.505903l261.631854 262.229854c3.327998 3.071998 20.991988 20.479989 21.589988 41.471977zM697.598632 504.916719a194.559892 194.559892 0 0 0-194.132892-194.729892 194.559892 194.559892 0 0 0 0 389.289784c51.882971 0 100.692944-20.309989 137.300923-57.002969 36.69398-36.77898 56.746968-85.589952 56.746969-137.556923z" p-id="10203"></path></svg>