<?xml version="1.0" standalone="no"?><!DOCTYPE svg PUBLIC "-//W3C//DTD SVG 1.1//EN" "http://www.w3.org/Graphics/SVG/1.1/DTD/svg11.dtd"><svg t="1590748201154" class="icon" viewBox="0 0 1024 1024" version="1.1" xmlns="http://www.w3.org/2000/svg" p-id="21521" xmlns:xlink="http://www.w3.org/1999/xlink" width="200" height="200"><defs><style type="text/css"></style></defs><path d="M930.538375 266.274506H826.564325v-54.502312c0-58.809407-47.836495-106.646925-106.646925-106.646925H304.06725c-58.809407 0-106.646925 47.836495-106.646925 106.646925v54.502312H93.461625c-15.562441 0-28.170596 12.608156-28.170596 28.170596v195.184401c0 15.562441 12.608156 28.170596 28.170596 28.170597h8.048303v294.425659c0 58.809407 47.836495 106.646925 106.646926 106.646925h607.685269c58.809407 0 106.646925-47.836495 106.646925-106.646925V517.801123h8.048304c15.562441 0 28.170596-12.608156 28.170596-28.170596V294.446126c0.001023-15.563464-12.607132-28.17162-28.169573-28.17162z m-676.776857-54.501288c0-27.730575 22.575158-50.305733 50.305732-50.305733h415.85015c27.730575 0 50.305733 22.575158 50.305733 50.305733v54.502311H253.761518v-54.502311z m-132.129297 110.843504h780.734534v138.842185H571.884902v-8.051373c0-17.036002-13.809517-30.844495-30.844495-30.844496h-49.151444c-17.036002 0-30.844495 13.809517-30.844495 30.844496v8.051373H121.633245l-0.001024-138.842185z m744.515635 489.61006c0 27.730575-22.575158 50.305733-50.305733 50.305733H208.156854c-27.730575 0-50.305733-22.575158-50.305733-50.305733v-294.425659h303.1913v96.934726c0 17.036002 13.809517 30.844495 30.844496 30.844496h49.151443c17.036002 0 30.844495-13.809517 30.844495-30.844496v-96.934726h294.261931v294.426683h0.00307z" fill="" p-id="21522"></path></svg>