<?xml version="1.0" standalone="no"?><!DOCTYPE svg PUBLIC "-//W3C//DTD SVG 1.1//EN" "http://www.w3.org/Graphics/SVG/1.1/DTD/svg11.dtd"><svg t="1590748134086" class="icon" viewBox="0 0 1024 1024" version="1.1" xmlns="http://www.w3.org/2000/svg" p-id="20434" xmlns:xlink="http://www.w3.org/1999/xlink" width="200" height="200"><defs><style type="text/css"></style></defs><path d="M736.768 905.728c-134.656 0-243.712-109.056-243.712-243.712s109.056-243.712 243.712-243.712 243.712 109.056 243.712 243.712-109.056 243.712-243.712 243.712z m0-40.96c112.128 0 203.264-91.136 203.264-203.264s-91.136-203.264-203.264-203.264-203.264 91.136-203.264 203.264 91.136 203.264 203.264 203.264z" p-id="20435"></path><path d="M541.696 830.976H107.008V175.104h567.296v209.408c0 12.288 9.216 23.552 22.528 27.136h0.512c19.968 5.632 39.936-8.192 39.936-27.136V146.432c0-15.872-14.336-28.672-31.744-28.672H75.264c-17.408 0-31.744 12.8-31.744 28.672v713.216c0 15.872 14.336 28.672 31.744 28.672h453.632c31.232 0 45.568-35.328 21.504-53.76l-1.024-1.024c-2.048-1.536-5.12-2.56-7.68-2.56z" p-id="20436"></path><path d="M526.848 385.024H253.952c-14.848 0-27.136-12.288-27.136-27.136V248.832c0-14.848 12.288-27.136 27.136-27.136h272.896c14.848 0 27.136 12.288 27.136 27.136v109.056c0 15.36-11.776 27.136-27.136 27.136z m-232.96-44.032H486.4c9.216 0 16.384-9.728 16.384-22.016v-31.744c0-12.288-7.168-22.016-16.384-22.016H293.888c-9.216 0-16.384 9.728-16.384 22.016v31.744c0 12.288 7.68 22.016 16.384 22.016zM226.816 466.432c0 19.968 15.872 35.84 35.84 35.84s35.84-15.872 35.84-35.84-15.872-35.84-35.84-35.84-36.352 16.384-35.84 35.84zM354.816 466.432c0 19.968 15.872 35.84 35.84 35.84s35.84-15.872 35.84-35.84-15.872-35.84-35.84-35.84-35.84 16.384-35.84 35.84zM482.816 466.432c0 19.968 15.872 35.84 35.84 35.84s35.84-15.872 35.84-35.84-15.872-35.84-35.84-35.84-35.84 16.384-35.84 35.84z" p-id="20437"></path><path d="M226.304 607.744c0 19.968 15.872 35.84 35.84 35.84s35.84-15.872 35.84-35.84-15.872-35.84-35.84-35.84c-19.456 0-35.84 15.872-35.84 35.84zM354.816 607.744c0 19.968 15.872 35.84 35.84 35.84s35.84-15.872 35.84-35.84-15.872-35.84-35.84-35.84-35.84 15.872-35.84 35.84z" p-id="20438"></path><path d="M226.304 749.056c0 19.968 15.872 35.84 35.84 35.84s35.84-15.872 35.84-35.84-15.872-35.84-35.84-35.84c-19.456 0-35.84 15.872-35.84 35.84zM354.816 749.056c0 19.968 15.872 35.84 35.84 35.84s35.84-15.872 35.84-35.84-15.872-35.84-35.84-35.84-35.84 15.872-35.84 35.84z" p-id="20439"></path><path d="M638.464 670.72m-48.128 0a48.128 48.128 0 1 0 96.256 0 48.128 48.128 0 1 0-96.256 0Z" p-id="20440"></path><path d="M810.496 560.128m-41.472 0a41.472 41.472 0 1 0 82.944 0 41.472 41.472 0 1 0-82.944 0Z" p-id="20441"></path><path d="M807.936 763.904m-41.472 0a41.472 41.472 0 1 0 82.944 0 41.472 41.472 0 1 0-82.944 0Z" p-id="20442"></path><path d="M792.064 596.48l-119.808 78.336c-8.704 5.632-20.48 3.072-26.112-5.632-5.632-8.704-3.072-20.48 5.632-26.112l119.808-78.336c8.704-5.632 20.48-3.072 26.112 5.632 5.632 9.216 3.072 20.48-5.632 26.112z" p-id="20443"></path><path d="M792.064 779.264l-123.904-71.68c-9.216-5.12-11.776-16.384-6.656-25.6 5.12-9.216 16.384-11.776 25.6-6.656l123.904 71.68c9.216 5.12 11.776 16.384 6.656 25.6-5.12 8.704-16.384 11.776-25.6 6.656z" p-id="20444"></path></svg>